<svg width="151" height="54" viewBox="0 0 151 54" fill="none" xmlns="http://www.w3.org/2000/svg">
<path fill-rule="evenodd" clip-rule="evenodd" d="M60.99 3.60319L67.75 7.49251C68.08 7.69197 68.08 8.17065 67.75 8.36013L60.99 12.2495C60.66 12.4389 60.24 12.1996 60.24 11.8206V4.03201C60.24 3.65305 60.66 3.41371 60.99 3.60319ZM11.56 33.0025H11.57C17.54 33.0025 22.38 28.1758 22.38 22.2221V22.0127C22.38 18.9511 21.06 16.1787 18.97 14.244L21.79 11.4317H19.64H16.69H16.67H11.94H11.76H11.55C5.57999 11.4317 0.73999 16.2585 0.73999 22.2121V22.2221C0.749989 28.1758 5.58999 33.0025 11.56 33.0025ZM5.85999 22.2121C5.85999 19.0807 8.42999 16.5277 11.56 16.5277H11.57C14.71 16.5277 17.26 19.0707 17.26 22.2021V22.2221C17.26 25.3535 14.71 27.8965 11.57 27.8965H11.56C8.41998 27.8965 5.85999 25.3435 5.85999 22.2121ZM50.72 11.4317H50.71C44.74 11.4317 39.9 16.2585 39.9 22.2121V22.2221C39.9 28.1758 44.74 33.0025 50.71 33.0025H50.72C56.69 33.0025 61.53 28.1758 61.53 22.2221V22.2121C61.53 16.2585 56.69 11.4317 50.72 11.4317ZM56.43 22.2221C56.43 25.3535 53.88 27.8965 50.74 27.8965H50.73C47.59 27.8965 45.03 25.3336 45.03 22.2121C45.03 19.0807 47.6 16.5277 50.73 16.5277H50.74C53.87 16.5277 56.43 19.0807 56.43 22.2021V22.2221ZM14.13 35.5455H19.23L22.39 35.5655V35.5754C22.39 41.5291 17.55 46.3559 11.58 46.3559H11.57C5.59999 46.3559 0.759987 41.5291 0.759987 35.5754V35.5655H5.87999C5.87999 38.6869 8.43999 41.2499 11.58 41.2499H11.59C13.83 41.2499 15.76 39.9634 16.69 38.0985L14.13 35.5455ZM26.51 22.2221V33.0025H31.62V22.2221C31.62 19.0807 34.17 16.5377 37.32 16.5377V11.4417C31.35 11.4317 26.51 16.2585 26.51 22.2221Z" fill="black"/>
<path d="M71.6 14.3V9.8H89.06V14.3H82.76V32H77.9V14.3H71.6ZM99.575 17H104.195V32H99.845L99.545 30.32C99.085 30.94 98.425 31.44 97.565 31.82C96.725 32.2 95.855 32.39 94.955 32.39C93.255 32.39 91.905 31.86 90.905 30.8C89.925 29.72 89.435 28.26 89.435 26.42V17H94.055V24.74C94.055 25.96 94.275 26.86 94.715 27.44C95.155 28 95.845 28.28 96.785 28.28C97.765 28.28 98.475 28.01 98.915 27.47C99.355 26.93 99.575 26.04 99.575 24.8V17ZM112.012 32H107.662V9.38H112.282V18.74C112.742 18.06 113.422 17.52 114.322 17.12C115.242 16.7 116.242 16.49 117.322 16.49C119.422 16.49 121.092 17.24 122.332 18.74C123.572 20.22 124.192 22.19 124.192 24.65C124.192 26.97 123.522 28.84 122.182 30.26C120.842 31.68 119.102 32.39 116.962 32.39C115.922 32.39 114.972 32.18 114.112 31.76C113.272 31.34 112.652 30.78 112.252 30.08L112.012 32ZM113.332 21.71C112.652 22.39 112.312 23.29 112.312 24.41C112.312 25.53 112.652 26.44 113.332 27.14C114.012 27.82 114.892 28.16 115.972 28.16C117.052 28.16 117.912 27.82 118.552 27.14C119.212 26.44 119.542 25.53 119.542 24.41C119.542 23.29 119.212 22.39 118.552 21.71C117.912 21.01 117.052 20.66 115.972 20.66C114.892 20.66 114.012 21.01 113.332 21.71ZM133.811 32.39C131.551 32.39 129.691 31.65 128.231 30.17C126.771 28.67 126.041 26.77 126.041 24.47C126.041 22.13 126.751 20.22 128.171 18.74C129.611 17.26 131.461 16.52 133.721 16.52C136.081 16.52 137.941 17.24 139.301 18.68C140.681 20.12 141.371 22.06 141.371 24.5V25.67L130.481 25.73C130.741 27.67 131.881 28.64 133.901 28.64C134.781 28.64 135.511 28.49 136.091 28.19C136.671 27.89 137.041 27.47 137.201 26.93H141.431C141.151 28.59 140.321 29.92 138.941 30.92C137.581 31.9 135.871 32.39 133.811 32.39ZM133.751 20.27C131.951 20.27 130.881 21.14 130.541 22.88H136.781C136.781 22.08 136.501 21.45 135.941 20.99C135.401 20.51 134.671 20.27 133.751 20.27Z" fill="#D70404"/>
</svg>
